<svg xmlns="http://www.w3.org/2000/svg" width="11.94" height="21.91" viewBox="0 0 11.94 21.91">
  <defs>
    <style>
      .cls-1 {
        fill: #fff;
        fill-rule: evenodd;
        opacity: 0.75;
      }
    </style>
  </defs>
  <path id="Forma_1" data-name="Forma 1" class="cls-1" d="M1421.5,6046.1l-2.87-.01a5.014,5.014,0,0,0-5.3,5.4v2.48h-2.88a0.448,0.448,0,0,0-.45.45v3.6a0.448,0.448,0,0,0,.45.45h2.88v9.08a0.448,0.448,0,0,0,.45.45h3.76a0.448,0.448,0,0,0,.45-0.45v-9.08h3.37a0.448,0.448,0,0,0,.45-0.45v-3.6a0.438,0.438,0,0,0-.13-0.32,0.463,0.463,0,0,0-.32-0.13h-3.37v-2.11c0-1.01.25-1.52,1.58-1.52h1.93a0.448,0.448,0,0,0,.45-0.45v-3.34A0.448,0.448,0,0,0,1421.5,6046.1Z" transform="translate(-1410 -6046.09)"/>
</svg>
